<svg xmlns="http://www.w3.org/2000/svg" xmlns:xlink="http://www.w3.org/1999/xlink" width="500" zoomAndPan="magnify" viewBox="0 0 375 374.999991" height="500" preserveAspectRatio="xMidYMid meet" version="1.0"><defs><clipPath id="1669ddff4c"><path d="M 14 3 L 330 3 L 330 326 L 14 326 Z M 14 3 " clip-rule="nonzero"/></clipPath><clipPath id="d93943eef7"><path d="M -4.851562 110.847656 L 280.125 3.566406 L 379.476562 267.484375 L 94.5 374.765625 Z M -4.851562 110.847656 " clip-rule="nonzero"/></clipPath><clipPath id="109d532d32"><path d="M -30.019531 43.996094 L 254.957031 -63.285156 L 379.675781 268.019531 L 94.699219 375.296875 Z M -30.019531 43.996094 " clip-rule="nonzero"/></clipPath><clipPath id="f5e5d8c876"><path d="M -30.019531 43.996094 L 254.957031 -63.285156 L 379.675781 268.019531 L 94.699219 375.296875 Z M -30.019531 43.996094 " clip-rule="nonzero"/></clipPath><clipPath id="6a9fe444b5"><path d="M 90 98 L 264 98 L 264 256 L 90 256 Z M 90 98 " clip-rule="nonzero"/></clipPath><clipPath id="6c820959ab"><path d="M -4.851562 110.847656 L 280.125 3.566406 L 379.476562 267.484375 L 94.5 374.765625 Z M -4.851562 110.847656 " clip-rule="nonzero"/></clipPath><clipPath id="4c5b167022"><path d="M -30.019531 43.996094 L 254.957031 -63.285156 L 379.675781 268.019531 L 94.699219 375.296875 Z M -30.019531 43.996094 " clip-rule="nonzero"/></clipPath><clipPath id="d3e0beff41"><path d="M -30.019531 43.996094 L 254.957031 -63.285156 L 379.675781 268.019531 L 94.699219 375.296875 Z M -30.019531 43.996094 " clip-rule="nonzero"/></clipPath><clipPath id="19c3c9497e"><path d="M 14 21 L 325 21 L 325 312 L 14 312 Z M 14 21 " clip-rule="nonzero"/></clipPath><clipPath id="7c6529adaf"><path d="M -4.851562 110.847656 L 280.125 3.566406 L 379.476562 267.484375 L 94.5 374.765625 Z M -4.851562 110.847656 " clip-rule="nonzero"/></clipPath><clipPath id="72fb8d239c"><path d="M -30.019531 43.996094 L 254.957031 -63.285156 L 379.675781 268.019531 L 94.699219 375.296875 Z M -30.019531 43.996094 " clip-rule="nonzero"/></clipPath><clipPath id="9cdc9c5579"><path d="M -30.019531 43.996094 L 254.957031 -63.285156 L 379.675781 268.019531 L 94.699219 375.296875 Z M -30.019531 43.996094 " clip-rule="nonzero"/></clipPath><clipPath id="8fd95760de"><path d="M 101 11 L 164 11 L 164 78 L 101 78 Z M 101 11 " clip-rule="nonzero"/></clipPath><clipPath id="2539a93f2e"><path d="M 94.132812 18.539062 L 147.226562 -0.0390625 L 169.765625 64.382812 L 116.671875 82.960938 Z M 94.132812 18.539062 " clip-rule="nonzero"/></clipPath><clipPath id="8a6e8cbcd9"><path d="M 94.132812 18.539062 L 147.226562 -0.0390625 L 169.765625 64.382812 L 116.671875 82.960938 Z M 94.132812 18.539062 " clip-rule="nonzero"/></clipPath><clipPath id="9c0615534f"><path d="M 103 13 L 162 13 L 162 76 L 103 76 Z M 103 13 " clip-rule="nonzero"/></clipPath><clipPath id="6d72fe8b77"><path d="M 94.132812 18.539062 L 147.226562 -0.0390625 L 169.765625 64.382812 L 116.671875 82.960938 Z M 94.132812 18.539062 " clip-rule="nonzero"/></clipPath><clipPath id="6eaf85b868"><path d="M 94.132812 18.539062 L 147.226562 -0.0390625 L 169.765625 64.382812 L 116.671875 82.960938 Z M 94.132812 18.539062 " clip-rule="nonzero"/></clipPath><clipPath id="370e0bbd0b"><path d="M 109 19 L 127 19 L 127 35 L 109 35 Z M 109 19 " clip-rule="nonzero"/></clipPath><clipPath id="790d69178b"><path d="M 94.132812 18.539062 L 147.226562 -0.0390625 L 169.765625 64.382812 L 116.671875 82.960938 Z M 94.132812 18.539062 " clip-rule="nonzero"/></clipPath><clipPath id="f9f7fcead4"><path d="M 94.132812 18.539062 L 147.226562 -0.0390625 L 169.765625 64.382812 L 116.671875 82.960938 Z M 94.132812 18.539062 " clip-rule="nonzero"/></clipPath><clipPath id="bbfe60725b"><path d="M 113 32 L 157 32 L 157 71 L 113 71 Z M 113 32 " clip-rule="nonzero"/></clipPath><clipPath id="f70e9a0618"><path d="M 94.132812 18.539062 L 147.226562 -0.0390625 L 169.765625 64.382812 L 116.671875 82.960938 Z M 94.132812 18.539062 " clip-rule="nonzero"/></clipPath><clipPath id="1f9c2e83b1"><path d="M 94.132812 18.539062 L 147.226562 -0.0390625 L 169.765625 64.382812 L 116.671875 82.960938 Z M 94.132812 18.539062 " clip-rule="nonzero"/></clipPath></defs><g clip-path="url(#1669ddff4c)"><g clip-path="url(#d93943eef7)"><g clip-path="url(#109d532d32)"><g clip-path="url(#f5e5d8c876)"><path fill="#c05a7d" d="M 299.675781 55.507812 L 305.152344 70.050781 L 324.523438 121.515625 L 330 136.058594 L 320.566406 139.609375 C 317.339844 140.824219 314.0625 142.148438 310.777344 143.203125 C 309.214844 143.699219 308.640625 144.375 308.855469 145.679688 C 309.191406 146.566406 309.496094 147.375 309.828125 148.261719 L 310.742188 150.6875 C 312.34375 154.695312 313.78125 158.765625 315.304688 162.804688 L 316.550781 166.117188 L 294.859375 174.285156 C 295.113281 175.203125 295.386719 175.929688 295.578125 176.6875 C 295.882812 177.496094 296.1875 178.304688 296.574219 179.082031 C 296.726562 179.484375 296.847656 179.808594 296.886719 180.164062 C 298.589844 184.6875 300.183594 189.160156 302.046875 193.625 C 302.929688 195.96875 302.367188 196.917969 300.160156 197.65625 L 281.046875 204.851562 L 283.816406 212.203125 L 289.289062 226.746094 L 269.695312 234.125 C 268.050781 234.648438 267.507812 235.40625 267.863281 236.839844 C 268.109375 237.488281 268.351562 238.132812 268.5625 238.699219 C 270.894531 244.648438 273.035156 250.578125 275.40625 256.878906 L 272.484375 258.164062 C 267.242188 260.136719 261.980469 262.300781 256.648438 264.03125 C 254.441406 264.769531 253.957031 265.691406 254.265625 267.234375 C 254.628906 268.207031 254.996094 269.175781 255.441406 270.113281 C 255.5625 270.4375 255.683594 270.761719 255.722656 271.113281 C 257.507812 275.609375 259.050781 280.195312 260.882812 284.578125 C 261.816406 286.808594 261.222656 287.675781 259.125 288.464844 C 253.742188 290.308594 248.53125 292.363281 243.289062 294.335938 L 239.984375 295.582031 L 244.609375 307.859375 C 245.683594 310.960938 246.675781 314.09375 247.753906 317.191406 C 244.667969 318.539062 241.613281 319.964844 238.46875 321.148438 C 235.324219 322.332031 230.488281 324.152344 226.210938 325.761719 L 218 303.949219 L 202.195312 309.898438 C 196.066406 312.207031 196.066406 312.207031 193.753906 306.066406 C 192.050781 301.539062 190.296875 297.128906 188.707031 292.652344 C 188.085938 290.765625 187.25 290.25 185.34375 291.058594 L 165.832031 298.40625 L 163.03125 290.972656 C 161.816406 287.742188 160.578125 284.699219 159.472656 281.519531 L 157.921875 277.398438 C 157.082031 276.148438 156.074219 276.894531 154.300781 277.5625 C 149.203125 279.667969 143.980469 281.449219 138.738281 283.421875 L 135.59375 284.605469 C 133.222656 278.304688 130.941406 272.246094 128.609375 266.296875 C 127.269531 262.742188 127.269531 262.742188 123.800781 264.046875 L 107.675781 270.117188 C 105.820312 270.816406 104.960938 270.492188 104.230469 268.554688 C 102.519531 263.757812 100.644531 259.019531 98.820312 254.171875 C 98.789062 254.09375 98.757812 254.011719 98.726562 253.929688 C 98.574219 253.527344 98.421875 253.121094 98.269531 252.71875 C 97.816406 251.507812 97.359375 250.292969 96.902344 249.082031 L 93.777344 250.074219 L 78.777344 255.722656 C 75.070312 257.117188 75.070312 257.117188 73.609375 253.238281 C 72.148438 249.359375 69.65625 243.472656 68.074219 238.535156 C 67.921875 238.128906 67.769531 237.726562 67.617188 237.324219 C 66.757812 235.523438 65.554688 235.515625 63.21875 236.394531 C 57.3125 238.804688 51.3125 240.96875 45.023438 243.335938 L 39.550781 228.792969 L 20.175781 177.328125 L 14.699219 162.785156 L 23.246094 159.566406 C 26.796875 158.234375 30.285156 156.734375 33.890625 155.5625 C 35.644531 155.085938 36.160156 154.246094 35.832031 152.894531 C 35.4375 151.84375 35.074219 150.875 34.597656 149.851562 C 34.445312 149.449219 34.324219 149.125 34.28125 148.773438 C 32.578125 144.25 30.988281 139.773438 29.121094 135.308594 C 28.222656 133.160156 28.785156 132.210938 30.910156 131.5 L 49.78125 124.398438 C 49.433594 123.234375 49.179688 122.316406 48.816406 121.347656 C 48.695312 121.023438 48.542969 120.621094 48.421875 120.296875 C 48.269531 119.894531 48.148438 119.570312 47.996094 119.164062 C 47.902344 118.921875 47.84375 118.761719 47.78125 118.601562 C 46.128906 113.964844 44.363281 109.277344 42.519531 104.625 C 41.910156 103.007812 42.152344 102.179688 43.847656 101.542969 L 105.535156 78.320312 C 107.308594 77.652344 107.964844 78.417969 108.511719 79.871094 C 110.164062 84.507812 111.980469 89.082031 113.714844 93.6875 C 113.804688 93.929688 113.894531 94.171875 113.988281 94.414062 C 114.414062 95.546875 114.808594 96.597656 115.234375 97.726562 C 116.023438 99.089844 117.203125 99.292969 119.242188 98.339844 C 124.308594 96.15625 129.613281 94.34375 134.773438 92.402344 L 137.738281 91.46875 L 143.210938 106.011719 L 145.886719 113.125 L 168.144531 104.746094 L 165.40625 97.472656 L 159.933594 82.929688 L 176.300781 76.769531 C 180.898438 75.039062 181.429688 74.007812 180.699219 71.332031 C 180.546875 70.925781 180.363281 70.441406 180.101562 69.988281 C 179.949219 69.582031 179.828125 69.261719 179.789062 68.90625 C 178.113281 64.464844 176.460938 59.828125 174.628906 55.445312 C 173.898438 53.503906 174.078125 52.515625 176.171875 51.726562 L 237.054688 28.808594 C 239.152344 28.019531 239.941406 28.644531 240.589844 30.613281 C 242.210938 35.167969 243.996094 39.664062 245.761719 44.347656 C 245.851562 44.589844 245.941406 44.832031 246.0625 45.15625 C 246.214844 45.558594 246.335938 45.882812 246.488281 46.289062 C 246.914062 47.417969 247.371094 48.628906 247.796875 49.761719 L 269.652344 41.535156 L 272.9375 50.261719 C 273.96875 53.007812 275.085938 55.722656 276.007812 58.421875 L 277.40625 62.136719 C 278.074219 63.175781 278.902344 63.417969 280.402344 62.761719 Z M 86.808594 43.488281 C 87.171875 44.460938 87.972656 46.832031 88.582031 48.449219 C 89.191406 50.066406 89.066406 49.742188 90.359375 49.253906 L 96.40625 46.980469 C 97.257812 49.242188 98.128906 51.3125 98.871094 53.523438 C 99.113281 54.167969 99.417969 54.238281 100.0625 53.996094 L 105.464844 51.964844 C 106.59375 51.539062 106.59375 51.539062 107.050781 52.75 L 109.359375 58.890625 L 115.730469 56.492188 C 116.539062 56.1875 116.921875 56.230469 117.175781 57.148438 C 117.429688 58.066406 118.148438 59.734375 118.632812 61.027344 L 119.578125 63.53125 L 126.109375 61.070312 C 126.753906 60.828125 126.976562 60.929688 127.21875 61.578125 L 128.921875 66.101562 C 129.714844 68.203125 129.714844 68.203125 131.808594 67.414062 L 137.132812 65.410156 L 139.929688 72.839844 L 144.042969 71.292969 L 147.128906 69.949219 C 146.730469 68.898438 146.417969 67.816406 146.050781 66.847656 L 144.5 62.726562 L 150.953125 60.296875 C 151.679688 60.023438 151.828125 59.691406 151.554688 58.964844 C 151.28125 58.238281 150.214844 55.410156 149.4375 53.582031 C 148.65625 51.753906 149.171875 52.390625 150.089844 52.136719 L 156.460938 49.738281 C 155.636719 47.558594 154.816406 45.375 153.945312 43.304688 C 153.703125 42.660156 153.851562 42.324219 154.5 42.082031 L 161.03125 39.625 L 158.261719 32.273438 L 164.714844 29.84375 C 165.46875 29.652344 165.699219 29.289062 165.316406 28.507812 L 163.308594 23.175781 C 163.1875 22.855469 163.144531 22.5 162.964844 22.015625 L 170.222656 19.285156 L 167.726562 12.660156 C 167.484375 12.011719 167.632812 11.679688 168.230469 11.546875 L 174.761719 9.089844 L 166.425781 -13.050781 C 164.167969 -12.199219 162.042969 -11.492188 159.894531 -10.589844 C 159.25 -10.347656 158.996094 -10.53125 158.753906 -11.175781 L 156.289062 -17.71875 L 148.953125 -14.957031 L 146.519531 -21.421875 C 146.277344 -22.066406 146.105469 -22.28125 145.378906 -22.007812 L 124.898438 -14.296875 C 124.25 -14.054688 124.101562 -13.71875 124.425781 -13.101562 L 126.160156 -8.5 C 126.859375 -6.640625 126.859375 -6.640625 124.921875 -5.910156 L 119.4375 -3.847656 L 122.175781 3.425781 L 114.757812 6.21875 L 112.050781 -0.972656 L 111.003906 -0.578125 C 109.308594 0.0585938 107.503906 0.644531 105.839844 1.363281 C 104.179688 2.082031 104.539062 1.578125 104.175781 0.605469 C 103.8125 -0.363281 102.917969 -2.976562 102.21875 -4.835938 C 102.035156 -5.320312 101.785156 -5.503906 101.21875 -5.289062 L 80.496094 2.511719 C 79.929688 2.722656 79.832031 2.945312 80.042969 3.511719 C 80.824219 5.339844 81.441406 7.226562 82.140625 9.085938 C 82.261719 9.410156 82.414062 9.8125 82.457031 10.167969 L 76.167969 12.535156 C 75.441406 12.808594 75.261719 13.0625 75.535156 13.789062 C 75.808594 14.515625 76.933594 17.503906 77.742188 19.414062 C 77.988281 20.058594 77.917969 20.363281 77.191406 20.636719 C 76.464844 20.910156 74.773438 21.546875 73.5625 22 L 70.738281 23.0625 L 79.042969 45.121094 L 85.171875 42.8125 C 86.027344 42.398438 86.441406 42.519531 86.808594 43.488281 Z M 86.808594 43.488281 " fill-opacity="1" fill-rule="nonzero"/></g></g></g></g><g clip-path="url(#6a9fe444b5)"><g clip-path="url(#6c820959ab)"><g clip-path="url(#4c5b167022)"><g clip-path="url(#d3e0beff41)"><path fill="#e587a4" d="M 238.96875 117.285156 C 237.921875 117.679688 237.394531 117.511719 237.082031 116.429688 C 236.765625 115.347656 235.558594 112.390625 234.800781 110.371094 L 232.945312 105.441406 L 220.769531 110.023438 L 216.753906 99.359375 C 216.359375 98.308594 216.015625 97.886719 214.804688 98.339844 C 203.546875 102.671875 192.175781 106.953125 180.855469 111.121094 C 179.648438 111.578125 179.585938 112.152344 179.984375 113.203125 C 181.035156 115.757812 181.980469 118.261719 182.921875 120.765625 C 183.863281 123.273438 184.109375 123.917969 180.964844 125.101562 L 171.851562 128.53125 L 176.414062 140.652344 L 163.996094 145.324219 L 159.464844 133.289062 L 157.851562 133.894531 C 154.949219 134.988281 152.015625 136 149.171875 137.253906 C 147.558594 137.859375 147.023438 137.417969 146.476562 135.960938 C 145.511719 132.914062 144.304688 129.953125 143.179688 126.964844 C 142.847656 126.074219 142.503906 125.652344 141.566406 126.097656 L 107.132812 139.058594 C 106.246094 139.394531 106.046875 139.835938 106.378906 140.726562 C 106.867188 142.019531 107.433594 143.28125 107.890625 144.492188 C 108.011719 144.816406 108.101562 145.058594 108.222656 145.382812 C 108.800781 146.917969 109.378906 148.453125 109.878906 150.015625 C 110.089844 150.582031 110.304688 151.148438 110.433594 151.746094 L 110.195312 151.835938 L 99.953125 155.691406 C 98.710938 156.066406 98.460938 156.621094 98.917969 157.832031 C 100.152344 160.871094 101.230469 163.972656 102.496094 167.09375 C 102.890625 168.144531 102.832031 168.71875 101.589844 169.09375 L 90.867188 173.132812 L 99.960938 197.289062 L 100.113281 197.695312 L 100.265625 198.097656 L 104.707031 209.894531 L 114.867188 206.070312 C 116.367188 205.410156 117.085938 205.601562 117.613281 207.25 C 118.140625 208.894531 119.570312 212.691406 120.683594 215.410156 C 121.796875 218.125 121.503906 217.589844 123.519531 216.832031 L 133.601562 213.035156 C 135.03125 216.835938 136.449219 220.359375 137.675781 223.863281 C 138.101562 224.996094 138.546875 225.195312 139.675781 224.769531 C 142.628906 223.566406 145.644531 222.523438 148.625 221.402344 C 151.609375 220.277344 150.5625 220.671875 151.292969 222.613281 L 155.15625 232.871094 L 156.929688 232.203125 C 159.832031 231.113281 162.765625 230.101562 165.636719 228.925781 C 166.976562 228.328125 167.664062 228.441406 168.128906 229.925781 C 168.597656 231.410156 169.660156 234.238281 170.484375 236.417969 L 172.035156 240.539062 C 175.824219 239.113281 179.402344 237.859375 182.921875 236.441406 C 183.96875 236.046875 184.414062 236.25 184.808594 237.296875 C 185.671875 239.832031 186.695312 242.308594 187.636719 244.8125 C 188.578125 247.316406 188.914062 248.207031 192.300781 246.929688 L 201.089844 243.621094 L 205.714844 255.902344 L 212.566406 253.324219 L 217.75 251.1875 C 217.160156 249.378906 216.601562 247.652344 215.964844 245.957031 C 215.324219 244.257812 214.289062 241.511719 213.378906 239.089844 L 224.101562 235.050781 C 225.230469 234.625 225.59375 234.121094 225.027344 232.859375 C 223.820312 229.898438 222.855469 226.847656 221.652344 223.890625 C 221.082031 222.628906 221.195312 221.941406 222.675781 221.476562 C 225.6875 220.433594 228.5625 219.257812 231.546875 218.136719 L 233.160156 217.527344 C 231.757812 213.8125 230.5 210.226562 229.082031 206.703125 C 228.6875 205.652344 228.9375 205.097656 230.015625 204.78125 C 231.097656 204.46875 233.808594 203.355469 235.742188 202.628906 L 240.902344 200.683594 L 236.28125 188.402344 L 238.054688 187.734375 C 241.039062 186.613281 243.910156 185.4375 246.925781 184.398438 C 248.132812 183.941406 248.496094 183.4375 247.929688 182.175781 C 246.722656 179.214844 245.707031 176.277344 244.613281 173.367188 C 244.371094 172.722656 244.238281 172.125 243.933594 171.316406 L 256.03125 166.765625 L 251.953125 155.9375 C 251.558594 154.886719 251.757812 154.441406 252.808594 154.046875 L 263.53125 150.011719 L 249.695312 113.25 Z M 233.085938 168.667969 C 231.390625 169.304688 229.335938 169.710938 227.714844 170.78125 C 226.65625 171.640625 226.054688 172.976562 226.023438 174.371094 C 227.398438 180.21875 227.558594 180.15625 222.085938 182.492188 C 221.472656 182.816406 220.9375 183.109375 220.324219 183.433594 C 220.34375 183.980469 220.222656 184.394531 220.265625 184.746094 C 220.925781 186.988281 222.414062 189.472656 221.800781 191.273438 C 221.1875 193.070312 218.164062 193.101562 216.519531 194.367188 C 215.65625 195.246094 215.265625 196.40625 215.335938 197.578125 C 215.652344 199.398438 216.5625 201.085938 217.386719 203.265625 C 215.722656 203.984375 214.472656 204.824219 213.121094 205.148438 C 209.472656 205.96875 208.839844 207.957031 210.539062 211.007812 C 212.242188 214.058594 212.125 215.945312 208.363281 216.714844 C 204.601562 217.488281 203.535156 219.546875 205.417969 223.082031 C 205.875 224.292969 206.222656 225.457031 206.515625 226.726562 L 198.613281 229.703125 C 197.109375 223.257812 193.972656 219.828125 187.035156 225.113281 C 185.40625 218.347656 182.625 214.136719 176.039062 219.382812 C 175.503906 218.941406 175.128906 218.433594 174.726562 217.847656 C 173.613281 215.871094 173.140625 212.910156 171.414062 211.992188 C 169.6875 211.074219 167.503906 213.097656 165.355469 213.257812 C 164.203125 213.136719 163.0625 212.554688 162.425781 211.59375 C 161.597656 209.878906 160.878906 208.210938 160.371094 206.371094 C 159.714844 206.34375 159.089844 206.394531 158.414062 206.554688 C 152.292969 208.398438 152.132812 208.457031 149.539062 202.792969 C 148.234375 200.058594 146.46875 200.996094 144.867188 201.878906 C 141.128906 203.929688 139.371094 202.929688 138.125 198.882812 C 136.378906 193.265625 134.308594 187.773438 132 182.367188 C 130.855469 179.570312 130.941406 177.601562 134.296875 176.984375 C 137.65625 176.363281 139.113281 173.878906 137.3125 170.3125 C 136.339844 168.464844 135.921875 166.871094 138.523438 165.707031 C 143.964844 163.289062 143.90625 163.128906 142.019531 157.382812 C 141.714844 156.574219 141.519531 155.816406 141.378906 154.945312 C 146.296875 153.09375 151.105469 151.191406 155.953125 149.644531 C 156.710938 149.453125 158.507812 150.804688 158.953125 151.742188 C 161.445312 156.894531 161.34375 157.117188 166.503906 155.171875 C 169.457031 153.96875 170.308594 155.496094 171.078125 157.785156 C 172.660156 161.988281 177.414062 162.875 180.300781 159.296875 C 180.925781 158.507812 180.597656 156.417969 180.0625 155.234375 C 178.574219 152.015625 178.792969 149.902344 182.746094 149.152344 C 186.695312 148.402344 187.105469 146.3125 185.296875 143.210938 C 183.484375 140.109375 184.558594 138.324219 187.957031 137.320312 C 191.355469 136.316406 195.890625 134.425781 200.566406 132.664062 C 201.226562 134.171875 201.753906 135.816406 202.25 137.382812 C 203.132812 140.460938 204.78125 141.410156 207.660156 139.773438 C 210.542969 138.132812 213.1875 138.800781 213.992188 142.648438 C 214.796875 146.496094 216.1875 146.523438 218.96875 145.109375 C 220.472656 144.453125 222.003906 143.875 223.566406 143.378906 Z M 205.992188 173.976562 C 207.246094 176.824219 207.644531 178.613281 203.671875 179.554688 C 199.699219 180.496094 199.292969 183.328125 200.710938 186.113281 C 202.125 188.902344 202.019531 190.324219 198.316406 191.257812 C 194.617188 192.1875 194.066406 194.886719 195.34375 197.542969 C 196.621094 200.199219 195.816406 201.976562 193.125 202.898438 C 190.433594 203.816406 188.710938 204.375 187.773438 200.667969 C 186.839844 196.960938 184.375 196.042969 181.222656 197.691406 C 178.070312 199.339844 176.613281 196.9375 175.871094 194.726562 C 175.128906 192.515625 174.378906 190.765625 171.226562 191.679688 C 165.699219 193.390625 165.640625 193.226562 163.632812 187.894531 L 162.75 185.550781 C 162.265625 184.257812 161.808594 183.046875 161.242188 181.785156 C 160.296875 179.28125 159.960938 176.917969 163.054688 175.84375 C 166.148438 174.769531 168.199219 175.566406 168.941406 178.515625 C 169.683594 181.464844 171.179688 182.75 174.34375 181.371094 C 177.507812 179.996094 179.789062 180.429688 180.8125 184.378906 C 181.839844 188.328125 184.441406 187.164062 186.859375 186.253906 C 189.277344 185.34375 191.890625 184.453125 190.097656 181.160156 C 188.304688 177.867188 189.582031 175.636719 192.757812 174.53125 C 195.933594 173.429688 196.3125 171.257812 195.117188 168.570312 C 193.921875 165.882812 194.261719 164.097656 197.648438 162.820312 C 201.035156 161.546875 202.058594 163.28125 202.980469 165.980469 C 203.902344 168.675781 204.734375 171.128906 205.992188 173.976562 Z M 205.992188 173.976562 " fill-opacity="1" fill-rule="nonzero"/></g></g></g></g><g clip-path="url(#19c3c9497e)"><g clip-path="url(#7c6529adaf)"><g clip-path="url(#72fb8d239c)"><g clip-path="url(#9cdc9c5579)"><path fill="#f7adc1" d="M 280.402344 62.761719 C 278.902344 63.417969 278.105469 63.257812 277.40625 62.136719 C 277.203125 61.84375 277.082031 61.519531 276.960938 61.199219 C 276.625 60.308594 276.371094 59.390625 276.007812 58.421875 C 275.054688 55.644531 273.9375 52.925781 272.9375 50.261719 L 269.652344 41.535156 L 247.796875 49.761719 C 247.339844 48.550781 246.914062 47.417969 246.488281 46.289062 C 246.246094 45.640625 246.003906 44.996094 245.761719 44.347656 C 243.996094 39.664062 242.210938 35.167969 240.589844 30.613281 C 239.941406 28.644531 239.152344 28.019531 237.054688 28.808594 L 176.171875 51.726562 C 174.078125 52.515625 173.898438 53.503906 174.628906 55.445312 C 176.460938 59.828125 178.113281 64.464844 179.789062 68.90625 C 179.816406 68.988281 179.816406 68.988281 179.847656 69.070312 C 180.183594 69.957031 180.457031 70.683594 180.699219 71.332031 C 181.542969 74.058594 180.898438 75.039062 176.300781 76.769531 L 159.933594 82.929688 L 165.40625 97.472656 L 168.144531 104.746094 L 145.886719 113.125 L 143.210938 106.011719 L 137.738281 91.46875 L 134.773438 92.402344 C 129.613281 94.34375 124.308594 96.15625 119.242188 98.339844 C 117.203125 99.292969 115.992188 99.011719 115.234375 97.726562 C 114.972656 97.273438 114.757812 96.707031 114.515625 96.0625 C 114.210938 95.253906 113.9375 94.527344 113.632812 93.71875 C 111.980469 89.082031 110.164062 84.507812 108.433594 79.902344 C 107.886719 78.449219 107.226562 77.679688 105.453125 78.347656 L 43.847656 101.542969 C 42.152344 102.179688 41.910156 103.007812 42.519531 104.625 C 44.363281 109.277344 46.097656 113.882812 47.78125 118.601562 C 47.996094 119.164062 48.207031 119.730469 48.421875 120.296875 C 48.542969 120.621094 48.695312 121.023438 48.816406 121.347656 C 49.179688 122.316406 49.433594 123.234375 49.78125 124.398438 L 30.910156 131.5 C 28.785156 132.210938 28.222656 133.160156 29.121094 135.308594 C 30.988281 139.773438 32.578125 144.25 34.28125 148.773438 C 34.679688 149.824219 35.074219 150.875 35.46875 151.921875 C 35.589844 152.246094 35.710938 152.570312 35.832031 152.894531 C 36.160156 154.246094 35.726562 155.054688 33.890625 155.5625 C 30.285156 156.734375 26.796875 158.234375 23.246094 159.566406 L 14.699219 162.785156 L 20.175781 177.328125 L 39.550781 228.792969 C 45.839844 226.425781 51.867188 224.34375 57.742188 221.851562 C 60.453125 220.742188 61.664062 221.023438 62.597656 223.992188 C 64 228.445312 65.832031 232.828125 67.617188 237.324219 C 67.769531 237.726562 67.921875 238.128906 68.074219 238.535156 C 68.105469 238.617188 68.132812 238.695312 68.132812 238.695312 C 69.988281 243.625 69.59375 242.574219 73.304688 241.179688 L 88.300781 235.53125 L 91.425781 234.539062 C 93.769531 240.761719 96.101562 246.710938 98.269531 252.71875 C 98.421875 253.121094 98.574219 253.527344 98.726562 253.929688 C 98.757812 254.011719 98.789062 254.09375 98.820312 254.171875 C 99.539062 255.839844 100.394531 256.160156 102.167969 255.492188 L 118.296875 249.421875 C 121.765625 248.117188 121.765625 248.117188 123.101562 251.671875 C 125.433594 257.621094 127.714844 263.679688 130.089844 269.980469 L 133.234375 268.796875 C 138.472656 266.824219 143.695312 265.042969 148.796875 262.9375 C 151.183594 261.949219 152.445312 262.117188 153.289062 264.84375 C 154.132812 267.574219 156.066406 272.46875 157.527344 276.347656 L 157.921875 277.398438 L 159.472656 281.519531 L 160.324219 283.78125 L 179.839844 276.4375 C 181.746094 275.625 182.582031 276.140625 183.203125 278.03125 C 184.792969 282.503906 186.546875 286.917969 188.25 291.441406 C 190.59375 297.664062 190.59375 297.664062 196.722656 295.355469 L 212.527344 289.40625 L 220.769531 311.300781 L 233.027344 306.6875 C 236.171875 305.503906 239.222656 304.078125 242.308594 302.730469 C 241.234375 299.628906 240.238281 296.5 239.164062 293.398438 L 234.570312 281.199219 L 237.875 279.953125 C 243.117188 277.980469 248.328125 275.925781 253.683594 274.003906 C 255.488281 273.417969 256.109375 272.628906 255.753906 271.195312 C 255.664062 270.953125 255.621094 270.597656 255.46875 270.195312 C 255.105469 269.226562 254.742188 268.257812 254.292969 267.316406 C 252.621094 262.875 251.03125 258.398438 249.304688 254.066406 C 248.3125 251.671875 248.511719 250.492188 251.203125 249.570312 C 256.539062 247.839844 261.796875 245.675781 267.039062 243.699219 L 269.960938 242.417969 C 269.507812 241.203125 269.050781 239.992188 268.59375 238.78125 C 268.351562 238.132812 268.109375 237.488281 267.894531 236.921875 C 266.128906 232.234375 264.476562 227.601562 262.695312 223.105469 C 261.882812 221.199219 262.367188 220.277344 264.25 219.660156 L 283.84375 212.285156 L 281.078125 204.933594 L 275.601562 190.390625 L 294.714844 183.195312 C 296.519531 182.609375 297.222656 181.789062 296.917969 180.242188 C 296.878906 179.890625 296.753906 179.566406 296.601562 179.164062 C 296.300781 178.355469 295.996094 177.546875 295.609375 176.769531 C 293.855469 172.355469 292.265625 167.882812 290.5625 163.359375 C 290.164062 162.308594 289.851562 161.226562 289.414062 159.824219 L 311.105469 151.65625 L 310.773438 150.769531 L 309.859375 148.34375 C 309.523438 147.457031 309.21875 146.648438 308.886719 145.757812 C 307.183594 141.234375 305.558594 136.679688 303.695312 132.214844 C 302.996094 130.359375 303.367188 129.386719 305.332031 128.738281 C 308.621094 127.6875 311.894531 126.363281 315.121094 125.148438 L 324.554688 121.597656 L 305.152344 70.050781 L 299.675781 55.507812 Z M 263.53125 150.011719 L 252.808594 154.046875 C 251.757812 154.441406 251.558594 154.886719 251.953125 155.9375 L 256.03125 166.765625 L 243.933594 171.316406 C 244.238281 172.125 244.371094 172.722656 244.613281 173.367188 C 245.707031 176.277344 246.722656 179.214844 247.929688 182.175781 C 248.496094 183.4375 248.132812 183.941406 246.925781 184.398438 C 243.910156 185.4375 241.039062 186.613281 238.054688 187.734375 L 236.28125 188.402344 L 240.902344 200.683594 L 235.742188 202.628906 C 233.808594 203.355469 231.097656 204.46875 230.015625 204.78125 C 228.9375 205.097656 228.6875 205.652344 229.082031 206.703125 C 230.5 210.226562 231.757812 213.8125 233.160156 217.527344 L 231.546875 218.136719 C 228.5625 219.257812 225.6875 220.433594 222.675781 221.476562 C 221.195312 221.941406 221.082031 222.628906 221.652344 223.890625 C 222.855469 226.847656 223.820312 229.898438 225.027344 232.859375 C 225.59375 234.121094 225.230469 234.625 224.101562 235.050781 L 213.378906 239.089844 C 214.289062 241.511719 215.324219 244.257812 215.964844 245.957031 C 216.601562 247.652344 217.160156 249.378906 217.75 251.1875 L 212.566406 253.324219 L 205.714844 255.902344 L 201.089844 243.621094 L 192.300781 246.929688 C 188.914062 248.207031 188.578125 247.316406 187.636719 244.8125 C 186.695312 242.308594 185.671875 239.832031 184.808594 237.296875 C 184.414062 236.25 183.96875 236.046875 182.921875 236.441406 C 179.402344 237.859375 175.824219 239.113281 172.035156 240.539062 L 170.484375 236.417969 C 169.660156 234.238281 168.597656 231.410156 168.128906 229.925781 C 167.664062 228.441406 166.976562 228.328125 165.636719 228.925781 C 162.765625 230.101562 159.832031 231.113281 156.929688 232.203125 L 155.15625 232.871094 L 151.292969 222.613281 C 150.5625 220.671875 151.609375 220.277344 148.625 221.402344 C 145.644531 222.523438 142.628906 223.566406 139.675781 224.769531 C 138.546875 225.195312 138.101562 224.996094 137.675781 223.863281 C 136.449219 220.359375 135.03125 216.835938 133.601562 213.035156 L 123.519531 216.832031 C 121.503906 217.589844 121.796875 218.125 120.683594 215.410156 C 119.570312 212.691406 118.140625 208.894531 117.613281 207.25 C 117.085938 205.601562 116.367188 205.410156 114.867188 206.070312 L 104.707031 209.894531 L 100.265625 198.097656 L 100.113281 197.695312 L 99.960938 197.289062 L 90.867188 173.132812 L 101.589844 169.09375 C 102.832031 168.71875 102.890625 168.144531 102.496094 167.09375 C 101.230469 163.972656 100.152344 160.871094 98.917969 157.832031 C 98.460938 156.621094 98.710938 156.066406 99.953125 155.691406 L 110.195312 151.835938 L 110.433594 151.746094 C 110.304688 151.148438 110.089844 150.582031 109.878906 150.015625 C 109.300781 148.480469 108.800781 146.917969 108.222656 145.382812 C 108.101562 145.058594 108.011719 144.816406 107.890625 144.492188 C 107.402344 143.199219 106.917969 141.90625 106.378906 140.726562 C 106.046875 139.835938 106.246094 139.394531 107.132812 139.058594 L 141.566406 126.097656 C 142.503906 125.652344 142.847656 126.074219 143.179688 126.964844 C 144.304688 129.953125 145.511719 132.914062 146.476562 135.960938 C 147.023438 137.417969 147.558594 137.859375 149.171875 137.253906 C 152.015625 136 154.949219 134.988281 157.851562 133.894531 L 159.464844 133.289062 L 163.996094 145.324219 L 176.414062 140.652344 L 171.851562 128.53125 L 180.964844 125.101562 C 184.109375 123.917969 183.863281 123.273438 182.921875 120.765625 C 181.980469 118.261719 181.035156 115.757812 179.984375 113.203125 C 179.585938 112.152344 179.648438 111.578125 180.855469 111.121094 C 192.175781 106.953125 203.546875 102.671875 214.804688 98.339844 C 216.015625 97.886719 216.359375 98.308594 216.753906 99.359375 L 220.769531 110.023438 L 232.945312 105.441406 L 234.800781 110.371094 C 235.558594 112.390625 236.765625 115.347656 237.082031 116.429688 C 237.394531 117.511719 237.921875 117.679688 238.96875 117.285156 L 249.695312 113.25 Z M 89.300781 29.082031 L 88.113281 25.933594 C 87.597656 24.558594 88.25 23.113281 89.621094 22.597656 L 92.765625 21.414062 C 94.136719 20.898438 95.582031 21.554688 96.097656 22.925781 L 97.285156 26.078125 C 97.375 26.320312 97.386719 26.59375 97.476562 26.835938 C 97.738281 26.550781 98.113281 26.320312 98.433594 26.199219 L 101.578125 25.015625 C 102.949219 24.5 104.394531 25.152344 104.910156 26.527344 L 106.066406 29.597656 C 106.582031 30.972656 105.929688 32.417969 104.558594 32.933594 L 101.414062 34.117188 C 100.042969 34.632812 98.601562 33.976562 98.082031 32.601562 L 96.898438 29.453125 C 96.804688 29.210938 96.796875 28.9375 96.703125 28.695312 C 96.441406 28.976562 96.070312 29.210938 95.746094 29.332031 L 92.601562 30.515625 C 91.261719 31.113281 89.789062 30.375 89.300781 29.082031 Z M 89.300781 29.082031 " fill-opacity="1" fill-rule="nonzero"/></g></g></g></g><g clip-path="url(#8fd95760de)"><g clip-path="url(#2539a93f2e)"><g clip-path="url(#8a6e8cbcd9)"><path fill="#252523" d="M 161.25 40.433594 L 158.789062 33.40625 L 156.019531 34.375 L 154.074219 28.8125 L 151.292969 29.785156 L 149.351562 24.234375 L 132.671875 30.070312 L 128.777344 18.941406 L 123.226562 20.882812 L 121.285156 15.332031 L 115.722656 17.28125 L 113.777344 11.714844 L 105.261719 14.695312 L 107.210938 20.257812 L 101.660156 22.199219 L 104.632812 30.699219 L 107.414062 29.726562 L 109.363281 35.289062 L 112.128906 34.320312 L 113.046875 36.9375 L 107.496094 38.878906 L 109.4375 44.429688 L 106.65625 45.402344 L 108.601562 50.96875 L 105.820312 51.941406 L 108.277344 58.964844 L 110.738281 66.003906 L 113.523438 65.03125 L 115.46875 70.59375 L 121.03125 68.648438 L 122.972656 74.199219 L 128.523438 72.257812 L 130.472656 77.820312 L 155.664062 69.007812 L 153.714844 63.441406 L 159.28125 61.496094 L 157.335938 55.945312 L 162.886719 54.003906 L 160.941406 48.4375 L 163.722656 47.464844 Z M 161.25 40.433594 " fill-opacity="1" fill-rule="nonzero"/></g></g></g><g clip-path="url(#9c0615534f)"><g clip-path="url(#6d72fe8b77)"><g clip-path="url(#6eaf85b868)"><path fill="#252523" d="M 157.832031 35.398438 L 155.0625 36.367188 L 153.117188 30.800781 L 150.335938 31.777344 L 148.390625 26.226562 L 148.378906 26.230469 L 142.839844 28.167969 L 142.828125 28.171875 L 140.058594 29.140625 L 137.277344 30.113281 L 139.21875 35.664062 L 136.4375 36.636719 L 134.496094 31.085938 L 134.484375 31.089844 L 131.726562 32.054688 L 129.78125 26.492188 L 127.832031 20.929688 L 127.820312 20.933594 L 125.050781 21.902344 L 122.269531 22.875 L 120.328125 17.324219 L 114.765625 19.269531 L 112.816406 13.707031 L 107.253906 15.652344 L 109.199219 21.21875 L 106.429688 22.1875 L 106.417969 22.191406 L 103.648438 23.160156 L 105.589844 28.710938 L 105.597656 28.722656 L 108.363281 27.753906 L 108.359375 27.742188 L 108.375 27.738281 L 108.378906 27.75 L 110.320312 33.300781 L 113.089844 32.332031 L 115.035156 37.894531 L 112.265625 38.863281 L 112.253906 38.867188 L 109.484375 39.835938 L 111.425781 45.386719 L 108.644531 46.363281 L 110.589844 51.925781 L 107.808594 52.898438 L 109.75 58.449219 L 111.699219 64.011719 L 114.480469 63.039062 L 116.425781 68.605469 L 119.207031 67.628906 L 121.992188 66.65625 L 123.933594 72.207031 L 123.9375 72.222656 L 126.707031 71.253906 L 126.71875 71.246094 L 129.476562 70.285156 L 129.472656 70.269531 L 129.484375 70.265625 L 131.429688 75.828125 L 136.992188 73.882812 L 139.761719 72.914062 L 139.777344 72.910156 L 142.542969 71.941406 L 140.597656 66.378906 L 138.65625 60.828125 L 136.710938 55.261719 L 134.777344 49.695312 L 138.667969 60.820312 L 140.609375 66.371094 L 142.558594 71.9375 L 145.328125 70.96875 L 145.339844 70.964844 L 148.109375 69.996094 L 150.890625 69.019531 L 153.671875 68.046875 L 151.730469 62.496094 L 157.292969 60.550781 L 155.347656 54.988281 L 158.117188 54.019531 L 160.898438 53.042969 L 158.953125 47.480469 L 161.734375 46.507812 L 159.785156 40.945312 L 157.84375 35.394531 Z M 157.832031 35.398438 " fill-opacity="1" fill-rule="nonzero"/></g></g></g><g clip-path="url(#370e0bbd0b)"><g clip-path="url(#790d69178b)"><g clip-path="url(#f9f7fcead4)"><path fill="#37be59" d="M 119.488281 23.847656 L 116.707031 24.820312 L 114.765625 19.269531 L 111.980469 20.242188 L 109.199219 21.21875 L 111.148438 26.78125 L 113.929688 25.808594 L 115.871094 31.359375 L 118.652344 30.386719 L 121.433594 29.410156 L 123.382812 34.976562 L 126.164062 34.003906 L 124.214844 28.4375 L 122.269531 22.875 Z M 119.488281 23.847656 " fill-opacity="1" fill-rule="nonzero"/></g></g></g><g clip-path="url(#bbfe60725b)"><g clip-path="url(#f70e9a0618)"><g clip-path="url(#1f9c2e83b1)"><path fill="#ed2629" d="M 149.5 38.3125 L 147.550781 32.75 L 144.785156 33.71875 L 144.769531 33.722656 L 142 34.691406 L 143.949219 40.253906 L 141.167969 41.226562 L 138.382812 42.203125 L 138.371094 42.207031 L 135.617188 43.171875 L 133.667969 37.605469 L 130.886719 38.578125 L 128.105469 39.554688 L 122.542969 41.5 L 120.597656 35.949219 L 115.035156 37.894531 L 116.976562 43.445312 L 114.207031 44.414062 L 116.15625 49.980469 L 116.140625 49.984375 L 113.375 50.953125 L 115.316406 56.503906 L 117.261719 62.066406 L 120.042969 61.09375 L 121.992188 66.65625 L 124.757812 65.6875 L 124.773438 65.683594 L 127.527344 64.71875 L 127.542969 64.714844 L 129.488281 70.277344 L 135.050781 68.332031 L 137.820312 67.363281 L 137.832031 67.359375 L 140.601562 66.390625 L 140.617188 66.386719 L 143.382812 65.417969 L 143.398438 65.414062 L 146.167969 64.445312 L 148.949219 63.46875 L 151.730469 62.496094 L 149.785156 56.933594 L 155.347656 54.988281 L 153.402344 49.421875 L 156.15625 48.457031 L 154.210938 42.894531 L 152.269531 37.34375 Z M 149.5 38.3125 " fill-opacity="1" fill-rule="nonzero"/></g></g></g></svg>